<?xml version="1.0" standalone="no"?>
<!DOCTYPE svg PUBLIC "-//W3C//DTD SVG 20010904//EN"
 "http://www.w3.org/TR/2001/REC-SVG-20010904/DTD/svg10.dtd">
<svg version="1.0" xmlns="http://www.w3.org/2000/svg"
 width="370.000000pt" height="370.000000pt" viewBox="0 0 370.000000 370.000000"
 preserveAspectRatio="xMidYMid meet">
<metadata>
Created by potrace 1.14, written by Peter Selinger 2001-2017
</metadata>
<g transform="translate(0.000000,370.000000) scale(0.100000,-0.100000)"
fill="#000000" stroke="none">
<path d="M1685 3560 c-27 -4 -72 -10 -98 -14 -192 -27 -479 -139 -657 -258
-235 -158 -412 -346 -554 -591 -31 -54 -56 -100 -56 -102 0 -3 -13 -33 -29
-67 -31 -70 -85 -231 -97 -293 -5 -22 -9 -42 -9 -45 -1 -3 -5 -27 -10 -55 -4
-27 -10 -59 -13 -70 -2 -11 -6 -99 -7 -195 -3 -181 12 -321 49 -455 10 -33 18
-64 20 -70 19 -77 128 -318 187 -415 40 -66 158 -215 221 -280 285 -292 620
-459 1040 -519 67 -10 379 -7 438 4 79 14 136 25 160 30 45 9 175 48 185 55 6
4 28 13 50 20 58 18 222 102 302 154 107 69 181 129 281 229 258 255 420 564
489 934 21 115 26 422 8 518 -7 39 -16 86 -18 105 -21 133 -119 404 -179 492
-10 14 -18 29 -18 33 0 4 -23 41 -51 83 -212 318 -507 552 -855 678 -100 36
-258 76 -349 89 -72 10 -371 13 -430 5z"/>
</g>
</svg>
