<?xml version="1.0" encoding="UTF-8" standalone="no"?>
<!-- Generator: Adobe Illustrator 27.3.1, SVG Export Plug-In . SVG Version: 6.00 Build 0)  -->

<svg
        version="1.1"
        id="Layer_1"
        x="0px"
        y="0px"
        viewBox="0 0 626 173"
        style="enable-background:new 0 0 626 173;"
        xml:space="preserve"
        sodipodi:docname="arthera-logo.svg"
        inkscape:version="1.1.2 (0a00cf5339, 2022-02-04)"
        xmlns:inkscape="http://www.inkscape.org/namespaces/inkscape"
        xmlns:sodipodi="http://sodipodi.sourceforge.net/DTD/sodipodi-0.dtd"
        xmlns:xlink="http://www.w3.org/1999/xlink"
        xmlns="http://www.w3.org/2000/svg"
        xmlns:svg="http://www.w3.org/2000/svg"><defs
   id="defs101" /><sodipodi:namedview
        id="namedview99"
        pagecolor="#ffffff"
        bordercolor="#666666"
        borderopacity="1.0"
        inkscape:pageshadow="2"
        inkscape:pageopacity="0.0"
        inkscape:pagecheckerboard="0"
        showgrid="false"
        inkscape:zoom="0.66972844"
        inkscape:cx="82.122838"
        inkscape:cy="108.25283"
        inkscape:window-width="1846"
        inkscape:window-height="1136"
        inkscape:window-x="0"
        inkscape:window-y="0"
        inkscape:window-maximized="1"
        inkscape:current-layer="g96" />
    <style
            type="text/css"
            id="style72">
	.st0{clip-path:url(#SVGID_00000088092580286713044750000015035544281671948438_);}
</style>
    <g
            id="g96">
	<defs
            id="defs75">
		<rect
                id="SVGID_1_"
                x="-635"
                y="-420.9"
                width="1897"
                height="1011.9" />
	</defs>
        <clipPath
                id="SVGID_00000059281323624144844100000006132017131603372189_">
		<use
                xlink:href="#SVGID_1_"
                style="overflow:visible;"
                id="use77" />
	</clipPath>
        <path
                style="clip-path:url(#SVGID_00000059281323624144844100000006132017131603372189_);fill:#4299e1;fill-opacity:1"
                d="M191,64.7v102.5h-34.5V64.7   c0-15.3-12.5-27.8-27.8-27.8V2.4C163.1,2.4,191,30.4,191,64.7 M7.9,134.9v32.4h34.5v-32.4c0-15.3,12.5-27.8,27.8-27.8V72.5   C35.8,72.5,7.9,100.5,7.9,134.9 M116.7,36.9H82.2v130.4h34.5V36.9z"
                clip-path="url(#SVGID_00000059281323624144844100000006132017131603372189_)"
                id="path80" />
        <path
                style="clip-path:url(#SVGID_00000059281323624144844100000006132017131603372189_);fill:#4299e1;fill-opacity:1"
                d="M250.3,167.5c-4,0-7.6-0.7-10.7-2   c-3.1-1.4-5.6-3.4-7.4-6.2c-1.8-2.8-2.7-6.2-2.7-10.4c0-3.5,0.6-6.5,1.9-8.9c1.2-2.4,2.9-4.4,5.1-5.9c2.2-1.5,4.7-2.7,7.5-3.4   c2.8-0.8,5.9-1.3,9.1-1.6c3.6-0.3,6.5-0.7,8.7-1.1c2.2-0.4,3.8-0.9,4.8-1.6c1-0.7,1.5-1.7,1.5-3v-0.2c0-2.1-0.7-3.8-2.2-4.9   c-1.5-1.2-3.4-1.7-5.9-1.7c-2.7,0-4.8,0.6-6.4,1.7c-1.6,1.2-2.7,2.8-3.1,4.8l-18.6-0.7c0.5-3.9,2-7.3,4.3-10.3   c2.3-3,5.5-5.4,9.5-7.2c4-1.7,8.9-2.6,14.5-2.6c4,0,7.8,0.5,11.2,1.4c3.4,1,6.4,2.3,8.9,4.1c2.5,1.8,4.5,4,5.9,6.6   c1.4,2.6,2.1,5.6,2.1,9v43.1h-19v-8.8h-0.5c-1.1,2.1-2.6,4-4.3,5.4c-1.7,1.5-3.8,2.6-6.1,3.3C255.9,167.1,253.2,167.5,250.3,167.5    M256.5,154.3c2.2,0,4.1-0.4,5.9-1.3c1.7-0.9,3.1-2.1,4.2-3.7c1-1.6,1.6-3.4,1.6-5.4v-6c-0.6,0.3-1.3,0.6-2.1,0.8   c-0.8,0.2-1.7,0.5-2.7,0.7c-1,0.2-2,0.4-3,0.6c-1,0.2-2,0.3-2.9,0.5c-1.9,0.3-3.5,0.8-4.8,1.4c-1.3,0.6-2.4,1.4-3.1,2.5   c-0.7,1-1.1,2.2-1.1,3.6c0,2.1,0.8,3.7,2.2,4.8C252.3,153.8,254.2,154.3,256.5,154.3"
                clip-path="url(#SVGID_00000059281323624144844100000006132017131603372189_)"
                id="path82" />
        <path
                style="clip-path:url(#SVGID_00000059281323624144844100000006132017131603372189_);fill:#4299e1;fill-opacity:1"
                d="M294,166.4v-63.4h19.6v11.6h0.7   c1.2-4.2,3-7.3,5.7-9.3c2.6-2,5.7-3.1,9.1-3.1c0.9,0,1.9,0.1,2.9,0.2c1,0.1,1.9,0.3,2.8,0.6v17.5c-1-0.3-2.2-0.6-3.8-0.8   s-2.9-0.3-4.1-0.3c-2.4,0-4.5,0.5-6.5,1.6c-1.9,1.1-3.4,2.5-4.5,4.4c-1.1,1.9-1.6,4.1-1.6,6.6v34.4H294z"
                clip-path="url(#SVGID_00000059281323624144844100000006132017131603372189_)"
                id="path84" />
        <path
                style="clip-path:url(#SVGID_00000059281323624144844100000006132017131603372189_);fill:#4299e1;fill-opacity:1"
                d="M377.9,151c-0.4,0.1-1.1,0.2-2,0.4   c-0.9,0.2-1.7,0.2-2.5,0.2c-1.1,0-2-0.2-2.8-0.5c-0.8-0.3-1.4-0.9-1.8-1.6c-0.4-0.8-0.6-1.8-0.6-3v-28.6h11.4v-14.9h-11.4V87.9   h-20.2v15.2h-8.4v14.9h8.4v30.8c-0.1,4.3,0.8,7.9,2.6,10.7c1.8,2.8,4.3,4.9,7.7,6.3c3.4,1.3,7.4,1.9,12.2,1.7   c2.4-0.1,4.5-0.4,6.2-0.8c1.7-0.4,3.1-0.8,4.1-1L377.9,151z"
                clip-path="url(#SVGID_00000059281323624144844100000006132017131603372189_)"
                id="path86" />
        <path
                style="clip-path:url(#SVGID_00000059281323624144844100000006132017131603372189_);fill:#4299e1;fill-opacity:1"
                d="M405.8,130.3v36.1h-20.2V81.9h19.5   v32.8h0.7c1.4-3.9,3.8-7,7-9.2c3.3-2.2,7.3-3.3,12-3.3c4.5,0,8.3,1,11.6,2.9c3.3,2,5.9,4.7,7.7,8.3c1.8,3.6,2.7,7.8,2.7,12.5v40.4   h-20.2V130c0-3.5-0.9-6.3-2.6-8.3c-1.8-2-4.3-3-7.6-3c-2.1,0-4,0.5-5.6,1.4c-1.6,0.9-2.9,2.2-3.8,3.9   C406.2,125.8,405.8,127.9,405.8,130.3"
                clip-path="url(#SVGID_00000059281323624144844100000006132017131603372189_)"
                id="path88" />
        <path
                style="clip-path:url(#SVGID_00000059281323624144844100000006132017131603372189_);fill:#4299e1;fill-opacity:1"
                d="M513.3,139.6v-5   c0-5.2-0.8-9.8-2.3-13.8c-1.5-4-3.6-7.4-6.4-10.2c-2.7-2.7-6-4.8-9.7-6.2c-3.7-1.4-7.9-2.1-12.4-2.1c-6.4,0-11.9,1.4-16.6,4.1   c-4.7,2.7-8.3,6.6-10.9,11.5c-2.6,4.9-3.9,10.6-3.9,17.2c0,6.7,1.3,12.5,3.9,17.4c2.6,4.9,6.3,8.6,11.1,11.3   c4.8,2.6,10.5,3.9,17.1,3.9c5.5,0,10.4-0.8,14.6-2.5c4.2-1.7,7.6-4.1,10.2-7.1c2.6-3.1,4.3-6.7,5.1-10.8l-18.5-0.5   c-0.5,1.4-1.3,2.6-2.4,3.5c-1,1-2.3,1.7-3.8,2.2c-1.5,0.5-3.1,0.7-4.9,0.7c-2.6,0-4.8-0.5-6.7-1.6c-1.9-1.1-3.3-2.6-4.3-4.5   c-1-1.9-1.5-4.2-1.5-6.8v-0.5H513.3z M476.9,118.3c1.8-1,3.8-1.5,6.1-1.5c2.2,0,4.2,0.5,5.9,1.4c1.7,0.9,3.1,2.3,4.1,3.9   c1,1.7,1.5,3.6,1.5,5.7h-23.4c0.1-2,0.6-3.9,1.6-5.5C473.7,120.7,475.1,119.3,476.9,118.3"
                clip-path="url(#SVGID_00000059281323624144844100000006132017131603372189_)"
                id="path90" />
        <path
                style="clip-path:url(#SVGID_00000059281323624144844100000006132017131603372189_);fill:#4299e1;fill-opacity:1"
                d="M517.8,166.4v-63.4h19.6v11.6h0.7   c1.2-4.2,3-7.3,5.7-9.3c2.6-2,5.7-3.1,9.1-3.1c0.9,0,1.9,0.1,2.9,0.2c1,0.1,1.9,0.3,2.8,0.6v17.5c-1-0.3-2.2-0.6-3.8-0.8   c-1.6-0.2-2.9-0.3-4.1-0.3c-2.4,0-4.5,0.5-6.5,1.6c-1.9,1.1-3.4,2.5-4.5,4.4c-1.1,1.9-1.6,4.1-1.6,6.6v34.4H517.8z"
                clip-path="url(#SVGID_00000059281323624144844100000006132017131603372189_)"
                id="path92" />
        <path
                style="clip-path:url(#SVGID_00000059281323624144844100000006132017131603372189_);fill:#4299e1;fill-opacity:1"
                d="M581.3,167.5c-4,0-7.6-0.7-10.7-2   c-3.1-1.4-5.6-3.4-7.4-6.2c-1.8-2.8-2.7-6.2-2.7-10.4c0-3.5,0.6-6.5,1.9-8.9c1.2-2.4,2.9-4.4,5.1-5.9c2.2-1.5,4.7-2.7,7.5-3.4   c2.8-0.8,5.9-1.3,9.1-1.6c3.6-0.3,6.5-0.7,8.7-1.1c2.2-0.4,3.8-0.9,4.8-1.6c1-0.7,1.5-1.7,1.5-3v-0.2c0-2.1-0.7-3.8-2.2-4.9   c-1.5-1.2-3.4-1.7-5.9-1.7c-2.7,0-4.8,0.6-6.4,1.7c-1.6,1.2-2.7,2.8-3.1,4.8l-18.6-0.7c0.6-3.9,2-7.3,4.3-10.3   c2.3-3,5.5-5.4,9.5-7.2c4-1.7,8.9-2.6,14.5-2.6c4,0,7.8,0.5,11.2,1.4c3.4,1,6.4,2.3,8.9,4.1c2.5,1.8,4.5,4,5.9,6.6   c1.4,2.6,2.1,5.6,2.1,9v43.1h-19v-8.8h-0.5c-1.1,2.1-2.6,4-4.3,5.4c-1.7,1.5-3.8,2.6-6.1,3.3C586.9,167.1,584.2,167.5,581.3,167.5    M587.5,154.3c2.2,0,4.1-0.4,5.9-1.3c1.7-0.9,3.1-2.1,4.2-3.7c1-1.6,1.6-3.4,1.6-5.4v-6c-0.6,0.3-1.3,0.6-2.1,0.8   c-0.8,0.2-1.7,0.5-2.7,0.7c-1,0.2-2,0.4-3,0.6c-1,0.2-2,0.3-2.9,0.5c-1.9,0.3-3.5,0.8-4.8,1.4c-1.3,0.6-2.4,1.4-3.1,2.5   c-0.7,1-1.1,2.2-1.1,3.6c0,2.1,0.8,3.7,2.2,4.8C583.3,153.8,585.2,154.3,587.5,154.3"
                clip-path="url(#SVGID_00000059281323624144844100000006132017131603372189_)"
                id="path94" />
</g>
</svg>
